<mxfile host="65bd71144e">
    <diagram id="mJgAHA-NCV9GFRcPU_wy" name="Page-1">
        <mxGraphModel dx="597" dy="329" grid="1" gridSize="10" guides="1" tooltips="1" connect="1" arrows="1" fold="1" page="1" pageScale="1" pageWidth="850" pageHeight="1100" math="0" shadow="0">
            <root>
                <mxCell id="0"/>
                <mxCell id="1" parent="0"/>
                <mxCell id="2" value="1" style="whiteSpace=wrap;html=1;" parent="1" vertex="1">
                    <mxGeometry x="426" y="310" width="70" height="70" as="geometry"/>
                </mxCell>
                <mxCell id="3" value="2" style="whiteSpace=wrap;html=1;" parent="1" vertex="1">
                    <mxGeometry x="354" y="310" width="70" height="70" as="geometry"/>
                </mxCell>
                <mxCell id="4" value="3" style="whiteSpace=wrap;html=1;" parent="1" vertex="1">
                    <mxGeometry x="282" y="310" width="70" height="70" as="geometry"/>
                </mxCell>
                <mxCell id="5" value="" style="edgeStyle=none;orthogonalLoop=1;jettySize=auto;html=1;jumpSize=8;endSize=15;" parent="1" edge="1">
                    <mxGeometry width="100" relative="1" as="geometry">
                        <mxPoint x="150" y="345.5" as="sourcePoint"/>
                        <mxPoint x="250" y="345.5" as="targetPoint"/>
                        <Array as="points"/>
                    </mxGeometry>
                </mxCell>
                <mxCell id="6" value="&lt;font style=&quot;font-size: 15px;&quot;&gt;in&lt;/font&gt;" style="edgeLabel;html=1;align=center;verticalAlign=middle;resizable=0;points=[];" parent="5" vertex="1" connectable="0">
                    <mxGeometry x="-0.38" relative="1" as="geometry">
                        <mxPoint x="8" y="-2" as="offset"/>
                    </mxGeometry>
                </mxCell>
                <mxCell id="7" value="" style="edgeStyle=none;orthogonalLoop=1;jettySize=auto;html=1;jumpSize=8;endSize=15;" parent="1" edge="1">
                    <mxGeometry width="100" relative="1" as="geometry">
                        <mxPoint x="520" y="344.5" as="sourcePoint"/>
                        <mxPoint x="620" y="344.5" as="targetPoint"/>
                        <Array as="points"/>
                    </mxGeometry>
                </mxCell>
                <mxCell id="8" value="out" style="edgeLabel;html=1;align=center;verticalAlign=middle;resizable=0;points=[];fontSize=15;" parent="7" vertex="1" connectable="0">
                    <mxGeometry x="-0.26" y="-1" relative="1" as="geometry">
                        <mxPoint x="14" y="-3" as="offset"/>
                    </mxGeometry>
                </mxCell>
            </root>
        </mxGraphModel>
    </diagram>
</mxfile>